<?xml version="1.0" encoding="UTF-8"?>
<!DOCTYPE svg PUBLIC "-//W3C//DTD SVG 1.1//EN" "http://www.w3.org/Graphics/SVG/1.1/DTD/svg11.dtd">
<!-- Creator: CorelDRAW -->
<svg xmlns="http://www.w3.org/2000/svg" xml:space="preserve" width="215.9mm" height="279.4mm" version="1.1" style="shape-rendering:geometricPrecision; text-rendering:geometricPrecision; image-rendering:optimizeQuality; fill-rule:evenodd; clip-rule:evenodd"
viewBox="0 0 21590 27940"
 xmlns:xlink="http://www.w3.org/1999/xlink"
 xmlns:xodm="http://www.corel.com/coreldraw/odm/2003">
 <defs>
  <style type="text/css">
   <![CDATA[
    .fil0 {fill:#ED3237;fill-rule:nonzero}
   ]]>
  </style>
 </defs>
 <g id="Capa_x0020_1">
  <metadata id="CorelCorpID_0Corel-Layer"/>
  <g id="_2297557128640">
   <g id="SVGRepo_bgCarrier">
   </g>
   <g id="SVGRepo_tracerCarrier">
   </g>
   <g id="SVGRepo_iconCarrier">
    <path class="fil0" d="M20713.9 8559.27l0 11496.81c0,0 0,0 0,0.66 0,746.79 -605.23,1352.02 -1352.02,1352.02 0,0 0,0 -0.66,0l-3156.48 0 0 -7664.32 -5410.07 4058.71 -5410.07 -4058.71 0 7664.98 -3156.48 0c0,0 0,0 0,0 -746.79,0 -1352.02,-605.23 -1352.02,-1352.02 0,0 0,-0.66 0,-0.66l0 0 0 -11496.81c0,0 0,-0.66 0,-0.66 0,-1120.51 908.18,-2028.69 2028.69,-2028.69 459.05,0 882.39,152.8 1222.38,409.44l-5.29 -3.97 6672.79 5005.26 6672.79 -5005.26c334.7,-253.34 758.03,-405.47 1217.08,-405.47 1120.51,0 2028.69,908.18 2028.69,2028.69l0 0 0.67 0z"/>
   </g>
  </g>
 </g>
</svg>
