<?xml version="1.0" encoding="UTF-8"?>
<!DOCTYPE svg PUBLIC "-//W3C//DTD SVG 1.1//EN" "http://www.w3.org/Graphics/SVG/1.1/DTD/svg11.dtd">
<!-- Creator: CorelDRAW -->
<svg xmlns="http://www.w3.org/2000/svg" xml:space="preserve" width="215.9mm" height="279.4mm" version="1.1" style="shape-rendering:geometricPrecision; text-rendering:geometricPrecision; image-rendering:optimizeQuality; fill-rule:evenodd; clip-rule:evenodd"
viewBox="0 0 21590 27940"
 xmlns:xlink="http://www.w3.org/1999/xlink"
 xmlns:xodm="http://www.corel.com/coreldraw/odm/2003">
 <defs>
  <style type="text/css">
   <![CDATA[
    .fil0 {fill:#EC268F}
    .fil1 {fill:#EC268F;fill-rule:nonzero}
   ]]>
  </style>
 </defs>
 <g id="Capa_x0020_1">
  <metadata id="CorelCorpID_0Corel-Layer"/>
  <g id="_2297765338384">
   <path class="fil0" d="M10795 19261.67c2922.5,0 5291.67,-2369.17 5291.67,-5291.67 0,-2922.51 -2369.17,-5291.67 -5291.67,-5291.67 -2922.51,0 -5291.67,2369.16 -5291.67,5291.67 0,2922.5 2369.16,5291.67 5291.67,5291.67zm0 -1763.89c1948.3,0 3527.78,-1579.48 3527.78,-3527.78 0,-1948.34 -1579.48,-3527.78 -3527.78,-3527.78 -1948.34,0 -3527.78,1579.44 -3527.78,3527.78 0,1948.3 1579.44,3527.78 3527.78,3527.78z"/>
   <path class="fil1" d="M16086.67 7796.39c-487.1,0 -881.95,394.86 -881.95,881.94 0,487.08 394.85,881.95 881.95,881.95 487.09,0 881.94,-394.87 881.94,-881.95 0,-487.08 -394.85,-881.94 -881.94,-881.94z"/>
   <path class="fil0" d="M1670.37 7157.91c-576.76,1131.95 -576.76,2613.76 -576.76,5577.37l0 2469.44c0,2963.6 0,4445.44 576.76,5577.33 507.33,995.72 1316.85,1805.25 2312.54,2312.55 1131.95,576.79 2613.76,576.79 5577.37,576.79l2469.44 0c2963.6,0 4445.44,0 5577.33,-576.79 995.72,-507.3 1805.25,-1316.83 2312.55,-2312.55 576.79,-1131.89 576.79,-2613.73 576.79,-5577.33l0 -2469.44c0,-2963.61 0,-4445.42 -576.79,-5577.37 -507.3,-995.69 -1316.83,-1805.21 -2312.55,-2312.54 -1131.89,-576.76 -2613.73,-576.76 -5577.33,-576.76l-2469.44 0c-2963.61,0 -4445.42,0 -5577.37,576.76 -995.69,507.33 -1805.21,1316.85 -2312.54,2312.54zm10359.35 -1125.41l-2469.44 0c-1510.91,0 -2538.02,1.38 -3331.92,66.23 -773.32,63.19 -1168.79,177.71 -1444.66,318.27 -663.79,338.23 -1203.47,877.91 -1541.7,1541.7 -140.56,275.87 -255.08,671.34 -318.27,1444.66 -64.85,793.9 -66.23,1821.01 -66.23,3331.92l0 2469.44c0,1510.95 1.38,2537.97 66.23,3331.9 63.19,773.38 177.71,1168.84 318.27,1444.71 338.23,663.75 877.91,1203.42 1541.7,1541.64 275.87,140.58 671.34,255.15 1444.66,318.3 793.9,64.82 1821.01,66.23 3331.92,66.23l2469.44 0c1510.95,0 2537.97,-1.41 3331.9,-66.23 773.38,-63.15 1168.84,-177.72 1444.71,-318.3 663.75,-338.22 1203.42,-877.89 1541.64,-1541.64 140.58,-275.87 255.15,-671.33 318.3,-1444.71 64.82,-793.93 66.23,-1820.95 66.23,-3331.9l0 -2469.44c0,-1510.91 -1.41,-2538.02 -66.23,-3331.92 -63.15,-773.32 -177.72,-1168.79 -318.3,-1444.66 -338.22,-663.79 -877.89,-1203.47 -1541.64,-1541.7 -275.87,-140.56 -671.33,-255.08 -1444.71,-318.27 -793.93,-64.85 -1820.95,-66.23 -3331.9,-66.23z"/>
  </g>
 </g>
</svg>
