<?xml version="1.0" encoding="UTF-8"?>
<!DOCTYPE svg PUBLIC "-//W3C//DTD SVG 1.1//EN" "http://www.w3.org/Graphics/SVG/1.1/DTD/svg11.dtd">
<!-- Creator: CorelDRAW -->
<svg xmlns="http://www.w3.org/2000/svg" xml:space="preserve" width="215.9mm" height="279.4mm" version="1.1" style="shape-rendering:geometricPrecision; text-rendering:geometricPrecision; image-rendering:optimizeQuality; fill-rule:evenodd; clip-rule:evenodd"
viewBox="0 0 21590 27940"
 xmlns:xlink="http://www.w3.org/1999/xlink"
 xmlns:xodm="http://www.corel.com/coreldraw/odm/2003">
 <defs>
  <style type="text/css">
   <![CDATA[
    .fil0 {fill:#00A859}
   ]]>
  </style>
 </defs>
 <g id="Capa_x0020_1">
  <metadata id="CorelCorpID_0Corel-Layer"/>
  <path class="fil0" d="M3518.98 13969.98c0,-4140.22 3356.31,-7496.53 7496.51,-7496.53 4140.2,0 7496.53,3356.31 7496.53,7496.53 0,4140.2 -3356.33,7496.53 -7496.53,7496.53 -1474.79,0 -2847.56,-424.92 -4005.81,-1158.79 -215.56,-136.52 -479.69,-173.04 -724.2,-100.1l-2539.25 757.86 956.06 -2237.15c113.01,-264.4 90.01,-567.26 -61.61,-811.56 -711,-1145.73 -1121.7,-2496.96 -1121.7,-3946.79zm7496.51 -9260.42c-5114.37,0 -9260.4,4146.03 -9260.4,9260.42 0,1621.1 417.28,3147.04 1150.61,4473.84l-1520.63 3558.03c-134.43,314.59 -74.84,678.48 152.89,933.71 227.72,255.33 582.52,355.87 910.31,257.97l3968.24 -1184.19c1355.59,777 2926.55,1221.06 4598.98,1221.06 5114.4,0 9260.42,-4146.02 9260.42,-9260.42 0,-5114.39 -4146.02,-9260.42 -9260.42,-9260.42zm2021.86 11185.18l-1159.05 816.41c-542.84,-309.21 -1143,-740.83 -1745.02,-1342.85 -625.83,-625.82 -1089.8,-1271.94 -1431.91,-1864.6l736.59 -625.21c316.08,-268.29 402.6,-720.61 207.87,-1086.67l-938.53 -1763.88c-126.38,-237.52 -354.26,-404.36 -618.85,-453.09 -264.6,-48.73 -536.96,25.98 -739.67,202.89l-278.26 242.85c-669.16,584.01 -1064.92,1543.71 -736.91,2515.44 340.05,1007.35 1065.76,2592.83 2552.44,4079.52 1599.48,1599.49 3224.2,2229.38 4174.32,2474.03 765.52,197.03 1489.95,-67.12 2000.42,-483.04l521.67 -425.1c223.13,-181.77 343.52,-461.08 322.53,-748.15 -21.08,-287.08 -180.89,-545.84 -428.18,-693.21l-1480.17 -881.95c-298.98,-178.06 -674.69,-163.77 -959.29,36.61z"/>
 </g>
</svg>
